{
	"asset":{
		"generator":"Khronos glTF Blender I/O v5.0.21",
		"version":"2.0"
	},
	"scene":0,
	"scenes":[
		{
			"name":"Scene",
			"nodes":[
				0,
				1,
				2,
				3,
				4,
				5,
				6,
				7,
				8,
				9,
				10,
				11,
				12,
				13,
				14,
				15,
				16,
				17,
				18,
				19,
				20,
				21,
				22,
				23,
				24,
				25,
				26,
				27,
				28,
				29,
				30
			]
		}
	],
	"nodes":[
		{
			"mesh":0,
			"name":"Plane.003",
			"translation":[
				-1.3268754482269287,
				7.196077823638916,
				-1.9042983055114746
			]
		},
		{
			"name":"station_5",
			"translation":[
				-17.44072723388672,
				3.0735881328582764,
				-0.35384494066238403
			]
		},
		{
			"name":"station_4",
			"translation":[
				6.305149555206299,
				13.605437278747559,
				-0.3538464307785034
			]
		},
		{
			"name":"station_8",
			"translation":[
				-37.006004333496094,
				11.205461502075195,
				-0.35384494066238403
			]
		},
		{
			"name":"station_9",
			"translation":[
				-37.006004333496094,
				-9.872973442077637,
				-0.3538433909416199
			]
		},
		{
			"name":"station_2",
			"translation":[
				2.1245508193969727,
				-9.9389066696167,
				1.5676312446594238
			]
		},
		{
			"name":"station_3",
			"translation":[
				2.1245508193969727,
				-6.660834312438965,
				3.1752281188964844
			]
		},
		{
			"name":"station_1",
			"translation":[
				2.1245508193969727,
				-13.439343452453613,
				3.1752281188964844
			]
		},
		{
			"name":"station_6",
			"translation":[
				18.88374137878418,
				-7.56002140045166,
				-0.3538452386856079
			]
		},
		{
			"name":"station_7",
			"translation":[
				6.383543014526367,
				1.2192363739013672,
				-0.35384607315063477
			]
		},
		{
			"name":"station_10",
			"translation":[
				9.163922309875488,
				8.723678588867188,
				0.6254756450653076
			]
		},
		{
			"mesh":1,
			"name":"Cube.005",
			"translation":[
				-34.89296340942383,
				18.995121002197266,
				-0.5873355865478516
			]
		},
		{
			"mesh":2,
			"name":"Cylinder.006",
			"translation":[
				-38.60561752319336,
				11.205465316772461,
				-0.17304569482803345
			]
		},
		{
			"mesh":3,
			"name":"Cylinder.007",
			"translation":[
				-37.006004333496094,
				-9.872976303100586,
				-0.353843629360199
			]
		},
		{
			"mesh":4,
			"name":"GentSP",
			"translation":[
				-17.44072723388672,
				3.130906105041504,
				-0.3538452386856079
			]
		},
		{
			"mesh":5,
			"name":"Cylinder.010",
			"translation":[
				-7.658088684082031,
				7.531744480133057,
				-0.35384565591812134
			]
		},
		{
			"mesh":6,
			"name":"Cylinder.012",
			"translation":[
				-7.658088684082031,
				-3.3996920585632324,
				-0.3538452386856079
			]
		},
		{
			"mesh":7,
			"name":"Cylinder.013",
			"translation":[
				22.066558837890625,
				0.16842007637023926,
				-0.3538469672203064
			]
		},
		{
			"mesh":8,
			"name":"Cylinder.014",
			"translation":[
				40.0997314453125,
				-3.002285957336426,
				-0.3538473844528198
			]
		},
		{
			"mesh":9,
			"name":"Cylinder.015",
			"translation":[
				23.05573081970215,
				12.979743957519531,
				-0.3538477420806885
			]
		},
		{
			"mesh":10,
			"name":"Cylinder.016",
			"translation":[
				33.78715896606445,
				13.889420509338379,
				-0.35384851694107056
			]
		},
		{
			"mesh":11,
			"name":"Icosphere",
			"translation":[
				-38.419803619384766,
				8.365078926086426,
				-0.5873361825942993
			]
		},
		{
			"mesh":12,
			"name":"Cylinder.023",
			"translation":[
				-41.228759765625,
				-4.538615703582764,
				-0.353843629360199
			]
		},
		{
			"mesh":13,
			"name":"Cylinder.018",
			"translation":[
				6.035927772521973,
				18.536109924316406,
				0.5408098101615906
			]
		},
		{
			"mesh":14,
			"name":"Cylinder.005",
			"translation":[
				6.305149078369141,
				13.605437278747559,
				-1.2215932607650757
			]
		},
		{
			"mesh":15,
			"name":"Cylinder.009",
			"translation":[
				2.1245508193969727,
				-9.9389066696167,
				1.5676308870315552
			]
		},
		{
			"mesh":16,
			"name":"Cylinder.020",
			"translation":[
				2.1245508193969727,
				-6.660834312438965,
				3.1752281188964844
			]
		},
		{
			"mesh":17,
			"name":"Cylinder.021",
			"translation":[
				2.1245508193969727,
				-10.088895797729492,
				3.1752281188964844
			]
		},
		{
			"mesh":18,
			"name":"Cylinder.022",
			"translation":[
				2.1245508193969727,
				-13.439343452453613,
				3.1752281188964844
			]
		},
		{
			"mesh":19,
			"name":"Cylinder.011",
			"translation":[
				18.88374137878418,
				-7.56002140045166,
				-0.3538455367088318
			]
		},
		{
			"mesh":20,
			"name":"Cylinder.004",
			"translation":[
				6.383543014526367,
				1.2192363739013672,
				-0.35384607315063477
			]
		}
	],
	"meshes":[
		{
			"name":"Plane.002",
			"primitives":[
				{
					"attributes":{
						"POSITION":0,
						"NORMAL":1,
						"TEXCOORD_0":2
					},
					"indices":3
				}
			]
		},
		{
			"name":"Cube.001",
			"primitives":[
				{
					"attributes":{
						"POSITION":4,
						"NORMAL":5,
						"TEXCOORD_0":6
					},
					"indices":7
				}
			]
		},
		{
			"name":"Cylinder.006",
			"primitives":[
				{
					"attributes":{
						"POSITION":8,
						"NORMAL":9,
						"TEXCOORD_0":10
					},
					"indices":11
				}
			]
		},
		{
			"name":"Cylinder.007",
			"primitives":[
				{
					"attributes":{
						"POSITION":12,
						"NORMAL":13,
						"TEXCOORD_0":14
					},
					"indices":15
				}
			]
		},
		{
			"name":"Cylinder.008",
			"primitives":[
				{
					"attributes":{
						"POSITION":16,
						"NORMAL":17,
						"TEXCOORD_0":18
					},
					"indices":15
				}
			]
		},
		{
			"name":"Cylinder.010",
			"primitives":[
				{
					"attributes":{
						"POSITION":19,
						"NORMAL":20,
						"TEXCOORD_0":21
					},
					"indices":15
				}
			]
		},
		{
			"name":"Cylinder.012",
			"primitives":[
				{
					"attributes":{
						"POSITION":22,
						"NORMAL":23,
						"TEXCOORD_0":24
					},
					"indices":15
				}
			]
		},
		{
			"name":"Cylinder.013",
			"primitives":[
				{
					"attributes":{
						"POSITION":25,
						"NORMAL":26,
						"TEXCOORD_0":27
					},
					"indices":15
				}
			]
		},
		{
			"name":"Cylinder.014",
			"primitives":[
				{
					"attributes":{
						"POSITION":28,
						"NORMAL":29,
						"TEXCOORD_0":30
					},
					"indices":15
				}
			]
		},
		{
			"name":"Cylinder.015",
			"primitives":[
				{
					"attributes":{
						"POSITION":31,
						"NORMAL":32,
						"TEXCOORD_0":33
					},
					"indices":15
				}
			]
		},
		{
			"name":"Cylinder.016",
			"primitives":[
				{
					"attributes":{
						"POSITION":34,
						"NORMAL":35,
						"TEXCOORD_0":36
					},
					"indices":15
				}
			]
		},
		{
			"name":"Icosphere",
			"primitives":[
				{
					"attributes":{
						"POSITION":37,
						"NORMAL":38,
						"TEXCOORD_0":39
					},
					"indices":40
				}
			]
		},
		{
			"name":"Cylinder.023",
			"primitives":[
				{
					"attributes":{
						"POSITION":41,
						"NORMAL":42,
						"TEXCOORD_0":43
					},
					"indices":15
				}
			]
		},
		{
			"name":"Cylinder.018",
			"primitives":[
				{
					"attributes":{
						"POSITION":44,
						"NORMAL":45,
						"TEXCOORD_0":46
					},
					"indices":15
				}
			]
		},
		{
			"name":"Cylinder.024",
			"primitives":[
				{
					"attributes":{
						"POSITION":47,
						"NORMAL":48,
						"TEXCOORD_0":49
					},
					"indices":50
				}
			]
		},
		{
			"name":"Cylinder.009",
			"primitives":[
				{
					"attributes":{
						"POSITION":51,
						"NORMAL":52,
						"TEXCOORD_0":53
					},
					"indices":15
				}
			]
		},
		{
			"name":"Cylinder.020",
			"primitives":[
				{
					"attributes":{
						"POSITION":54,
						"NORMAL":55,
						"TEXCOORD_0":56
					},
					"indices":15
				}
			]
		},
		{
			"name":"Cylinder.021",
			"primitives":[
				{
					"attributes":{
						"POSITION":57,
						"NORMAL":58,
						"TEXCOORD_0":59
					},
					"indices":15
				}
			]
		},
		{
			"name":"Cylinder.022",
			"primitives":[
				{
					"attributes":{
						"POSITION":60,
						"NORMAL":61,
						"TEXCOORD_0":62
					},
					"indices":15
				}
			]
		},
		{
			"name":"Cylinder.011",
			"primitives":[
				{
					"attributes":{
						"POSITION":63,
						"NORMAL":64,
						"TEXCOORD_0":65
					},
					"indices":15
				}
			]
		},
		{
			"name":"Cylinder.004",
			"primitives":[
				{
					"attributes":{
						"POSITION":66,
						"NORMAL":67,
						"TEXCOORD_0":68
					},
					"indices":15
				}
			]
		}
	],
	"accessors":[
		{
			"bufferView":0,
			"componentType":5126,
			"count":1423,
			"max":[
				60.37190246582031,
				24.41071319580078,
				2.2451188564300537
			],
			"min":[
				-60.35591506958008,
				-24.30135154724121,
				-2.2451188564300537
			],
			"type":"VEC3"
		},
		{
			"bufferView":1,
			"componentType":5126,
			"count":1423,
			"type":"VEC3"
		},
		{
			"bufferView":2,
			"componentType":5126,
			"count":1423,
			"type":"VEC2"
		},
		{
			"bufferView":3,
			"componentType":5123,
			"count":5076,
			"type":"SCALAR"
		},
		{
			"bufferView":4,
			"componentType":5126,
			"count":32,
			"max":[
				2.2304718494415283,
				4.6751708984375,
				1.1342129707336426
			],
			"min":[
				-2.2304718494415283,
				-4.6751708984375,
				-1.1342129707336426
			],
			"type":"VEC3"
		},
		{
			"bufferView":5,
			"componentType":5126,
			"count":32,
			"type":"VEC3"
		},
		{
			"bufferView":6,
			"componentType":5126,
			"count":32,
			"type":"VEC2"
		},
		{
			"bufferView":7,
			"componentType":5123,
			"count":60,
			"type":"SCALAR"
		},
		{
			"bufferView":8,
			"componentType":5126,
			"count":198,
			"max":[
				4.115521430969238,
				3.22943377494812,
				1.7064964771270752
			],
			"min":[
				-4.115521430969238,
				-3.22943377494812,
				-1.7064964771270752
			],
			"type":"VEC3"
		},
		{
			"bufferView":9,
			"componentType":5126,
			"count":198,
			"type":"VEC3"
		},
		{
			"bufferView":10,
			"componentType":5126,
			"count":198,
			"type":"VEC2"
		},
		{
			"bufferView":11,
			"componentType":5123,
			"count":636,
			"type":"SCALAR"
		},
		{
			"bufferView":12,
			"componentType":5126,
			"count":130,
			"max":[
				3.026693820953369,
				3.026693105697632,
				3.026693105697632
			],
			"min":[
				-3.026693820953369,
				-3.026693105697632,
				-3.026693105697632
			],
			"type":"VEC3"
		},
		{
			"bufferView":13,
			"componentType":5126,
			"count":130,
			"type":"VEC3"
		},
		{
			"bufferView":14,
			"componentType":5126,
			"count":130,
			"type":"VEC2"
		},
		{
			"bufferView":15,
			"componentType":5123,
			"count":372,
			"type":"SCALAR"
		},
		{
			"bufferView":16,
			"componentType":5126,
			"count":130,
			"max":[
				3.1671271324157715,
				3.1671271324157715,
				2.5401828289031982
			],
			"min":[
				-3.1671271324157715,
				-3.1671271324157715,
				-2.5401828289031982
			],
			"type":"VEC3"
		},
		{
			"bufferView":17,
			"componentType":5126,
			"count":130,
			"type":"VEC3"
		},
		{
			"bufferView":18,
			"componentType":5126,
			"count":130,
			"type":"VEC2"
		},
		{
			"bufferView":19,
			"componentType":5126,
			"count":130,
			"max":[
				0.8795624375343323,
				0.8795624375343323,
				0.8795621395111084
			],
			"min":[
				-0.8795624375343323,
				-0.8795624375343323,
				-0.8795621395111084
			],
			"type":"VEC3"
		},
		{
			"bufferView":20,
			"componentType":5126,
			"count":130,
			"type":"VEC3"
		},
		{
			"bufferView":21,
			"componentType":5126,
			"count":130,
			"type":"VEC2"
		},
		{
			"bufferView":22,
			"componentType":5126,
			"count":130,
			"max":[
				0.9573860168457031,
				0.9573860168457031,
				0.9573864340782166
			],
			"min":[
				-0.9573860168457031,
				-0.9573860168457031,
				-0.9573864340782166
			],
			"type":"VEC3"
		},
		{
			"bufferView":23,
			"componentType":5126,
			"count":130,
			"type":"VEC3"
		},
		{
			"bufferView":24,
			"componentType":5126,
			"count":130,
			"type":"VEC2"
		},
		{
			"bufferView":25,
			"componentType":5126,
			"count":130,
			"max":[
				0.8795624375343323,
				0.8795624375343323,
				0.8795623779296875
			],
			"min":[
				-0.8795624375343323,
				-0.8795624375343323,
				-0.8795623779296875
			],
			"type":"VEC3"
		},
		{
			"bufferView":26,
			"componentType":5126,
			"count":130,
			"type":"VEC3"
		},
		{
			"bufferView":27,
			"componentType":5126,
			"count":130,
			"type":"VEC2"
		},
		{
			"bufferView":28,
			"componentType":5126,
			"count":130,
			"max":[
				0.8795624375343323,
				0.8795620799064636,
				0.8795621395111084
			],
			"min":[
				-0.8795624375343323,
				-0.8795620799064636,
				-0.8795621395111084
			],
			"type":"VEC3"
		},
		{
			"bufferView":29,
			"componentType":5126,
			"count":130,
			"type":"VEC3"
		},
		{
			"bufferView":30,
			"componentType":5126,
			"count":130,
			"type":"VEC2"
		},
		{
			"bufferView":31,
			"componentType":5126,
			"count":130,
			"max":[
				0.8795624375343323,
				0.8795624375343323,
				0.8795623779296875
			],
			"min":[
				-0.8795624375343323,
				-0.8795624375343323,
				-0.8795623779296875
			],
			"type":"VEC3"
		},
		{
			"bufferView":32,
			"componentType":5126,
			"count":130,
			"type":"VEC3"
		},
		{
			"bufferView":33,
			"componentType":5126,
			"count":130,
			"type":"VEC2"
		},
		{
			"bufferView":34,
			"componentType":5126,
			"count":130,
			"max":[
				0.8795624375343323,
				0.8795624375343323,
				0.8795623779296875
			],
			"min":[
				-0.8795624375343323,
				-0.8795624375343323,
				-0.8795623779296875
			],
			"type":"VEC3"
		},
		{
			"bufferView":35,
			"componentType":5126,
			"count":130,
			"type":"VEC3"
		},
		{
			"bufferView":36,
			"componentType":5126,
			"count":130,
			"type":"VEC2"
		},
		{
			"bufferView":37,
			"componentType":5126,
			"count":63,
			"max":[
				1.0428314208984375,
				1.0964958667755127,
				1.0964957475662231
			],
			"min":[
				-1.0428314208984375,
				-1.0964958667755127,
				-1.0964957475662231
			],
			"type":"VEC3"
		},
		{
			"bufferView":38,
			"componentType":5126,
			"count":63,
			"type":"VEC3"
		},
		{
			"bufferView":39,
			"componentType":5126,
			"count":63,
			"type":"VEC2"
		},
		{
			"bufferView":40,
			"componentType":5123,
			"count":240,
			"type":"SCALAR"
		},
		{
			"bufferView":41,
			"componentType":5126,
			"count":130,
			"max":[
				0.8795624375343323,
				0.8795624375343323,
				0.8795623779296875
			],
			"min":[
				-0.8795624375343323,
				-0.8795624375343323,
				-0.8795623779296875
			],
			"type":"VEC3"
		},
		{
			"bufferView":42,
			"componentType":5126,
			"count":130,
			"type":"VEC3"
		},
		{
			"bufferView":43,
			"componentType":5126,
			"count":130,
			"type":"VEC2"
		},
		{
			"bufferView":44,
			"componentType":5126,
			"count":130,
			"max":[
				1.1868466138839722,
				1.1868454217910767,
				0.3856542706489563
			],
			"min":[
				-1.1868466138839722,
				-1.1868454217910767,
				-0.3856542706489563
			],
			"type":"VEC3"
		},
		{
			"bufferView":45,
			"componentType":5126,
			"count":130,
			"type":"VEC3"
		},
		{
			"bufferView":46,
			"componentType":5126,
			"count":130,
			"type":"VEC2"
		},
		{
			"bufferView":47,
			"componentType":5126,
			"count":426,
			"max":[
				7.168033123016357,
				7.168032646179199,
				1.8470381498336792
			],
			"min":[
				-7.168033123016357,
				-7.168032646179199,
				-1.8470381498336792
			],
			"type":"VEC3"
		},
		{
			"bufferView":48,
			"componentType":5126,
			"count":426,
			"type":"VEC3"
		},
		{
			"bufferView":49,
			"componentType":5126,
			"count":426,
			"type":"VEC2"
		},
		{
			"bufferView":50,
			"componentType":5123,
			"count":1332,
			"type":"SCALAR"
		},
		{
			"bufferView":51,
			"componentType":5126,
			"count":130,
			"max":[
				5.003069877624512,
				5.00307035446167,
				1.5892612934112549
			],
			"min":[
				-5.003069877624512,
				-5.00307035446167,
				-1.5892612934112549
			],
			"type":"VEC3"
		},
		{
			"bufferView":52,
			"componentType":5126,
			"count":130,
			"type":"VEC3"
		},
		{
			"bufferView":53,
			"componentType":5126,
			"count":130,
			"type":"VEC2"
		},
		{
			"bufferView":54,
			"componentType":5126,
			"count":130,
			"max":[
				0.9579681754112244,
				0.9579681754112244,
				0.469815731048584
			],
			"min":[
				-0.9579681754112244,
				-0.9579681754112244,
				-0.469815731048584
			],
			"type":"VEC3"
		},
		{
			"bufferView":55,
			"componentType":5126,
			"count":130,
			"type":"VEC3"
		},
		{
			"bufferView":56,
			"componentType":5126,
			"count":130,
			"type":"VEC2"
		},
		{
			"bufferView":57,
			"componentType":5126,
			"count":130,
			"max":[
				0.9579681754112244,
				0.9579684138298035,
				0.469815731048584
			],
			"min":[
				-0.9579681754112244,
				-0.9579684138298035,
				-0.469815731048584
			],
			"type":"VEC3"
		},
		{
			"bufferView":58,
			"componentType":5126,
			"count":130,
			"type":"VEC3"
		},
		{
			"bufferView":59,
			"componentType":5126,
			"count":130,
			"type":"VEC2"
		},
		{
			"bufferView":60,
			"componentType":5126,
			"count":130,
			"max":[
				0.9579681754112244,
				0.9579681754112244,
				0.469815731048584
			],
			"min":[
				-0.9579681754112244,
				-0.9579681754112244,
				-0.469815731048584
			],
			"type":"VEC3"
		},
		{
			"bufferView":61,
			"componentType":5126,
			"count":130,
			"type":"VEC3"
		},
		{
			"bufferView":62,
			"componentType":5126,
			"count":130,
			"type":"VEC2"
		},
		{
			"bufferView":63,
			"componentType":5126,
			"count":130,
			"max":[
				1.5177093744277954,
				1.5177093744277954,
				1.5177096128463745
			],
			"min":[
				-1.5177093744277954,
				-1.5177093744277954,
				-1.5177096128463745
			],
			"type":"VEC3"
		},
		{
			"bufferView":64,
			"componentType":5126,
			"count":130,
			"type":"VEC3"
		},
		{
			"bufferView":65,
			"componentType":5126,
			"count":130,
			"type":"VEC2"
		},
		{
			"bufferView":66,
			"componentType":5126,
			"count":130,
			"max":[
				1.5177093744277954,
				1.5177093744277954,
				1.5177093744277954
			],
			"min":[
				-1.5177093744277954,
				-1.5177093744277954,
				-1.5177093744277954
			],
			"type":"VEC3"
		},
		{
			"bufferView":67,
			"componentType":5126,
			"count":130,
			"type":"VEC3"
		},
		{
			"bufferView":68,
			"componentType":5126,
			"count":130,
			"type":"VEC2"
		}
	],
	"bufferViews":[
		{
			"buffer":0,
			"byteLength":17076,
			"byteOffset":0,
			"target":34962
		},
		{
			"buffer":0,
			"byteLength":17076,
			"byteOffset":17076,
			"target":34962
		},
		{
			"buffer":0,
			"byteLength":11384,
			"byteOffset":34152,
			"target":34962
		},
		{
			"buffer":0,
			"byteLength":10152,
			"byteOffset":45536,
			"target":34963
		},
		{
			"buffer":0,
			"byteLength":384,
			"byteOffset":55688,
			"target":34962
		},
		{
			"buffer":0,
			"byteLength":384,
			"byteOffset":56072,
			"target":34962
		},
		{
			"buffer":0,
			"byteLength":256,
			"byteOffset":56456,
			"target":34962
		},
		{
			"buffer":0,
			"byteLength":120,
			"byteOffset":56712,
			"target":34963
		},
		{
			"buffer":0,
			"byteLength":2376,
			"byteOffset":56832,
			"target":34962
		},
		{
			"buffer":0,
			"byteLength":2376,
			"byteOffset":59208,
			"target":34962
		},
		{
			"buffer":0,
			"byteLength":1584,
			"byteOffset":61584,
			"target":34962
		},
		{
			"buffer":0,
			"byteLength":1272,
			"byteOffset":63168,
			"target":34963
		},
		{
			"buffer":0,
			"byteLength":1560,
			"byteOffset":64440,
			"target":34962
		},
		{
			"buffer":0,
			"byteLength":1560,
			"byteOffset":66000,
			"target":34962
		},
		{
			"buffer":0,
			"byteLength":1040,
			"byteOffset":67560,
			"target":34962
		},
		{
			"buffer":0,
			"byteLength":744,
			"byteOffset":68600,
			"target":34963
		},
		{
			"buffer":0,
			"byteLength":1560,
			"byteOffset":69344,
			"target":34962
		},
		{
			"buffer":0,
			"byteLength":1560,
			"byteOffset":70904,
			"target":34962
		},
		{
			"buffer":0,
			"byteLength":1040,
			"byteOffset":72464,
			"target":34962
		},
		{
			"buffer":0,
			"byteLength":1560,
			"byteOffset":73504,
			"target":34962
		},
		{
			"buffer":0,
			"byteLength":1560,
			"byteOffset":75064,
			"target":34962
		},
		{
			"buffer":0,
			"byteLength":1040,
			"byteOffset":76624,
			"target":34962
		},
		{
			"buffer":0,
			"byteLength":1560,
			"byteOffset":77664,
			"target":34962
		},
		{
			"buffer":0,
			"byteLength":1560,
			"byteOffset":79224,
			"target":34962
		},
		{
			"buffer":0,
			"byteLength":1040,
			"byteOffset":80784,
			"target":34962
		},
		{
			"buffer":0,
			"byteLength":1560,
			"byteOffset":81824,
			"target":34962
		},
		{
			"buffer":0,
			"byteLength":1560,
			"byteOffset":83384,
			"target":34962
		},
		{
			"buffer":0,
			"byteLength":1040,
			"byteOffset":84944,
			"target":34962
		},
		{
			"buffer":0,
			"byteLength":1560,
			"byteOffset":85984,
			"target":34962
		},
		{
			"buffer":0,
			"byteLength":1560,
			"byteOffset":87544,
			"target":34962
		},
		{
			"buffer":0,
			"byteLength":1040,
			"byteOffset":89104,
			"target":34962
		},
		{
			"buffer":0,
			"byteLength":1560,
			"byteOffset":90144,
			"target":34962
		},
		{
			"buffer":0,
			"byteLength":1560,
			"byteOffset":91704,
			"target":34962
		},
		{
			"buffer":0,
			"byteLength":1040,
			"byteOffset":93264,
			"target":34962
		},
		{
			"buffer":0,
			"byteLength":1560,
			"byteOffset":94304,
			"target":34962
		},
		{
			"buffer":0,
			"byteLength":1560,
			"byteOffset":95864,
			"target":34962
		},
		{
			"buffer":0,
			"byteLength":1040,
			"byteOffset":97424,
			"target":34962
		},
		{
			"buffer":0,
			"byteLength":756,
			"byteOffset":98464,
			"target":34962
		},
		{
			"buffer":0,
			"byteLength":756,
			"byteOffset":99220,
			"target":34962
		},
		{
			"buffer":0,
			"byteLength":504,
			"byteOffset":99976,
			"target":34962
		},
		{
			"buffer":0,
			"byteLength":480,
			"byteOffset":100480,
			"target":34963
		},
		{
			"buffer":0,
			"byteLength":1560,
			"byteOffset":100960,
			"target":34962
		},
		{
			"buffer":0,
			"byteLength":1560,
			"byteOffset":102520,
			"target":34962
		},
		{
			"buffer":0,
			"byteLength":1040,
			"byteOffset":104080,
			"target":34962
		},
		{
			"buffer":0,
			"byteLength":1560,
			"byteOffset":105120,
			"target":34962
		},
		{
			"buffer":0,
			"byteLength":1560,
			"byteOffset":106680,
			"target":34962
		},
		{
			"buffer":0,
			"byteLength":1040,
			"byteOffset":108240,
			"target":34962
		},
		{
			"buffer":0,
			"byteLength":5112,
			"byteOffset":109280,
			"target":34962
		},
		{
			"buffer":0,
			"byteLength":5112,
			"byteOffset":114392,
			"target":34962
		},
		{
			"buffer":0,
			"byteLength":3408,
			"byteOffset":119504,
			"target":34962
		},
		{
			"buffer":0,
			"byteLength":2664,
			"byteOffset":122912,
			"target":34963
		},
		{
			"buffer":0,
			"byteLength":1560,
			"byteOffset":125576,
			"target":34962
		},
		{
			"buffer":0,
			"byteLength":1560,
			"byteOffset":127136,
			"target":34962
		},
		{
			"buffer":0,
			"byteLength":1040,
			"byteOffset":128696,
			"target":34962
		},
		{
			"buffer":0,
			"byteLength":1560,
			"byteOffset":129736,
			"target":34962
		},
		{
			"buffer":0,
			"byteLength":1560,
			"byteOffset":131296,
			"target":34962
		},
		{
			"buffer":0,
			"byteLength":1040,
			"byteOffset":132856,
			"target":34962
		},
		{
			"buffer":0,
			"byteLength":1560,
			"byteOffset":133896,
			"target":34962
		},
		{
			"buffer":0,
			"byteLength":1560,
			"byteOffset":135456,
			"target":34962
		},
		{
			"buffer":0,
			"byteLength":1040,
			"byteOffset":137016,
			"target":34962
		},
		{
			"buffer":0,
			"byteLength":1560,
			"byteOffset":138056,
			"target":34962
		},
		{
			"buffer":0,
			"byteLength":1560,
			"byteOffset":139616,
			"target":34962
		},
		{
			"buffer":0,
			"byteLength":1040,
			"byteOffset":141176,
			"target":34962
		},
		{
			"buffer":0,
			"byteLength":1560,
			"byteOffset":142216,
			"target":34962
		},
		{
			"buffer":0,
			"byteLength":1560,
			"byteOffset":143776,
			"target":34962
		},
		{
			"buffer":0,
			"byteLength":1040,
			"byteOffset":145336,
			"target":34962
		},
		{
			"buffer":0,
			"byteLength":1560,
			"byteOffset":146376,
			"target":34962
		},
		{
			"buffer":0,
			"byteLength":1560,
			"byteOffset":147936,
			"target":34962
		},
		{
			"buffer":0,
			"byteLength":1040,
			"byteOffset":149496,
			"target":34962
		}
	],
	"buffers":[
		{
			"byteLength":150536,
			"uri":"042_sporenkijker_10_scaled.bin"
		}
	]
}
