{
	"asset":{
		"generator":"Khronos glTF Blender I/O v5.0.21",
		"version":"2.0"
	},
	"scene":0,
	"scenes":[
		{
			"name":"Scene",
			"nodes":[
				0,
				1,
				2,
				3,
				4,
				5,
				6,
				7,
				8,
				9,
				10,
				11,
				12,
				13,
				14,
				15,
				16,
				17,
				18,
				19,
				20,
				21,
				22,
				23,
				24,
				25,
				26,
				27,
				28,
				29,
				30
			]
		}
	],
	"nodes":[
		{
			"mesh":0,
			"name":"Plane.003",
			"translation":[
				-0.6742587089538574,
				3.4139058589935303,
				0.2698547840118408
			]
		},
		{
			"name":"station_5",
			"translation":[
				-2.993919849395752,
				2.8204550743103027,
				0.49304941296577454
			]
		},
		{
			"name":"station_4",
			"translation":[
				0.4244053363800049,
				4.336561679840088,
				0.4930492043495178
			]
		},
		{
			"name":"station_8",
			"translation":[
				-5.810428619384766,
				3.991074562072754,
				0.49304941296577454
			]
		},
		{
			"name":"station_9",
			"translation":[
				-5.810428619384766,
				0.9567396640777588,
				0.49304965138435364
			]
		},
		{
			"name":"station_2",
			"translation":[
				-0.17741048336029053,
				0.9472482204437256,
				0.7696545124053955
			]
		},
		{
			"name":"station_3",
			"translation":[
				-0.17741048336029053,
				1.419141411781311,
				1.001075267791748
			]
		},
		{
			"name":"station_1",
			"translation":[
				-0.17741048336029053,
				0.44334471225738525,
				1.001075267791748
			]
		},
		{
			"name":"station_6",
			"translation":[
				2.23514986038208,
				1.2896993160247803,
				0.49304938316345215
			]
		},
		{
			"name":"station_7",
			"translation":[
				0.43569040298461914,
				2.5535128116607666,
				0.4930492639541626
			]
		},
		{
			"name":"station_10",
			"translation":[
				0.8359384536743164,
				3.6338107585906982,
				0.6340270042419434
			]
		},
		{
			"mesh":1,
			"name":"Cube.005",
			"translation":[
				-5.506247043609619,
				5.112430572509766,
				0.45943740010261536
			]
		},
		{
			"mesh":2,
			"name":"Cylinder.006",
			"translation":[
				-6.040700435638428,
				3.991075038909912,
				0.5190762877464294
			]
		},
		{
			"mesh":3,
			"name":"Cylinder.007",
			"translation":[
				-5.810429096221924,
				0.9567394256591797,
				0.49304962158203125
			]
		},
		{
			"mesh":4,
			"name":"GentSP",
			"translation":[
				-2.993919849395752,
				2.8287062644958496,
				0.49304938316345215
			]
		},
		{
			"mesh":5,
			"name":"Cylinder.010",
			"translation":[
				-1.585665225982666,
				3.462226629257202,
				0.4930493235588074
			]
		},
		{
			"mesh":6,
			"name":"Cylinder.012",
			"translation":[
				-1.585665225982666,
				1.8885974884033203,
				0.49304938316345215
			]
		},
		{
			"mesh":7,
			"name":"Cylinder.013",
			"translation":[
				2.693330764770508,
				2.402243137359619,
				0.49304914474487305
			]
		},
		{
			"mesh":8,
			"name":"Cylinder.014",
			"translation":[
				5.289287090301514,
				1.9458057880401611,
				0.49304908514022827
			]
		},
		{
			"mesh":9,
			"name":"Cylinder.015",
			"translation":[
				2.835726499557495,
				4.246490478515625,
				0.4930490255355835
			]
		},
		{
			"mesh":10,
			"name":"Cylinder.016",
			"translation":[
				4.380563259124756,
				4.377442359924316,
				0.49304890632629395
			]
		},
		{
			"mesh":11,
			"name":"Icosphere",
			"translation":[
				-6.013951301574707,
				3.582188844680786,
				0.4594373404979706
			]
		},
		{
			"mesh":12,
			"name":"Cylinder.023",
			"translation":[
				-6.418313503265381,
				1.7246441841125488,
				0.49304962158203125
			]
		},
		{
			"mesh":13,
			"name":"Cylinder.018",
			"translation":[
				0.3856496810913086,
				5.046354293823242,
				0.6218389868736267
			]
		},
		{
			"mesh":14,
			"name":"Cylinder.005",
			"translation":[
				0.42440521717071533,
				4.336561679840088,
				0.36813318729400635
			]
		},
		{
			"mesh":15,
			"name":"Cylinder.009",
			"translation":[
				-0.17741048336029053,
				0.9472482204437256,
				0.7696544528007507
			]
		},
		{
			"mesh":16,
			"name":"Cylinder.020",
			"translation":[
				-0.17741048336029053,
				1.419141411781311,
				1.001075267791748
			]
		},
		{
			"mesh":17,
			"name":"Cylinder.021",
			"translation":[
				-0.17741048336029053,
				0.925656795501709,
				1.001075267791748
			]
		},
		{
			"mesh":18,
			"name":"Cylinder.022",
			"translation":[
				-0.17741048336029053,
				0.44334471225738525,
				1.001075267791748
			]
		},
		{
			"mesh":19,
			"name":"Cylinder.011",
			"translation":[
				2.23514986038208,
				1.2896993160247803,
				0.49304935336112976
			]
		},
		{
			"mesh":20,
			"name":"Cylinder.004",
			"translation":[
				0.43569040298461914,
				2.5535128116607666,
				0.4930492639541626
			]
		}
	],
	"meshes":[
		{
			"name":"Plane.004",
			"primitives":[
				{
					"attributes":{
						"POSITION":0,
						"NORMAL":1,
						"TEXCOORD_0":2
					},
					"indices":3
				}
			]
		},
		{
			"name":"Cube.001",
			"primitives":[
				{
					"attributes":{
						"POSITION":4,
						"NORMAL":5,
						"TEXCOORD_0":6
					},
					"indices":7
				}
			]
		},
		{
			"name":"Cylinder.006",
			"primitives":[
				{
					"attributes":{
						"POSITION":8,
						"NORMAL":9,
						"TEXCOORD_0":10
					},
					"indices":11
				}
			]
		},
		{
			"name":"Cylinder.007",
			"primitives":[
				{
					"attributes":{
						"POSITION":12,
						"NORMAL":13,
						"TEXCOORD_0":14
					},
					"indices":15
				}
			]
		},
		{
			"name":"Cylinder.008",
			"primitives":[
				{
					"attributes":{
						"POSITION":16,
						"NORMAL":17,
						"TEXCOORD_0":18
					},
					"indices":15
				}
			]
		},
		{
			"name":"Cylinder.010",
			"primitives":[
				{
					"attributes":{
						"POSITION":19,
						"NORMAL":20,
						"TEXCOORD_0":21
					},
					"indices":15
				}
			]
		},
		{
			"name":"Cylinder.012",
			"primitives":[
				{
					"attributes":{
						"POSITION":22,
						"NORMAL":23,
						"TEXCOORD_0":24
					},
					"indices":15
				}
			]
		},
		{
			"name":"Cylinder.013",
			"primitives":[
				{
					"attributes":{
						"POSITION":25,
						"NORMAL":26,
						"TEXCOORD_0":27
					},
					"indices":15
				}
			]
		},
		{
			"name":"Cylinder.014",
			"primitives":[
				{
					"attributes":{
						"POSITION":28,
						"NORMAL":29,
						"TEXCOORD_0":30
					},
					"indices":15
				}
			]
		},
		{
			"name":"Cylinder.015",
			"primitives":[
				{
					"attributes":{
						"POSITION":31,
						"NORMAL":32,
						"TEXCOORD_0":33
					},
					"indices":15
				}
			]
		},
		{
			"name":"Cylinder.016",
			"primitives":[
				{
					"attributes":{
						"POSITION":34,
						"NORMAL":35,
						"TEXCOORD_0":36
					},
					"indices":15
				}
			]
		},
		{
			"name":"Icosphere",
			"primitives":[
				{
					"attributes":{
						"POSITION":37,
						"NORMAL":38,
						"TEXCOORD_0":39
					},
					"indices":40
				}
			]
		},
		{
			"name":"Cylinder.023",
			"primitives":[
				{
					"attributes":{
						"POSITION":41,
						"NORMAL":42,
						"TEXCOORD_0":43
					},
					"indices":15
				}
			]
		},
		{
			"name":"Cylinder.018",
			"primitives":[
				{
					"attributes":{
						"POSITION":44,
						"NORMAL":45,
						"TEXCOORD_0":46
					},
					"indices":15
				}
			]
		},
		{
			"name":"Cylinder.024",
			"primitives":[
				{
					"attributes":{
						"POSITION":47,
						"NORMAL":48,
						"TEXCOORD_0":49
					},
					"indices":50
				}
			]
		},
		{
			"name":"Cylinder.009",
			"primitives":[
				{
					"attributes":{
						"POSITION":51,
						"NORMAL":52,
						"TEXCOORD_0":53
					},
					"indices":15
				}
			]
		},
		{
			"name":"Cylinder.020",
			"primitives":[
				{
					"attributes":{
						"POSITION":54,
						"NORMAL":55,
						"TEXCOORD_0":56
					},
					"indices":15
				}
			]
		},
		{
			"name":"Cylinder.021",
			"primitives":[
				{
					"attributes":{
						"POSITION":57,
						"NORMAL":58,
						"TEXCOORD_0":59
					},
					"indices":15
				}
			]
		},
		{
			"name":"Cylinder.022",
			"primitives":[
				{
					"attributes":{
						"POSITION":60,
						"NORMAL":61,
						"TEXCOORD_0":62
					},
					"indices":15
				}
			]
		},
		{
			"name":"Cylinder.011",
			"primitives":[
				{
					"attributes":{
						"POSITION":63,
						"NORMAL":64,
						"TEXCOORD_0":65
					},
					"indices":15
				}
			]
		},
		{
			"name":"Cylinder.004",
			"primitives":[
				{
					"attributes":{
						"POSITION":66,
						"NORMAL":67,
						"TEXCOORD_0":68
					},
					"indices":15
				}
			]
		}
	],
	"accessors":[
		{
			"bufferView":0,
			"componentType":5126,
			"count":1368,
			"max":[
				8.707180976867676,
				3.5166471004486084,
				0.3431949019432068
			],
			"min":[
				-8.707180976867676,
				-3.5166471004486084,
				-0.3431949317455292
			],
			"type":"VEC3"
		},
		{
			"bufferView":1,
			"componentType":5126,
			"count":1368,
			"type":"VEC3"
		},
		{
			"bufferView":2,
			"componentType":5126,
			"count":1368,
			"type":"VEC2"
		},
		{
			"bufferView":3,
			"componentType":5123,
			"count":5076,
			"type":"SCALAR"
		},
		{
			"bufferView":4,
			"componentType":5126,
			"count":32,
			"max":[
				0.32108640670776367,
				0.6730117797851562,
				0.16327503323554993
			],
			"min":[
				-0.32108640670776367,
				-0.6730117797851562,
				-0.16327503323554993
			],
			"type":"VEC3"
		},
		{
			"bufferView":5,
			"componentType":5126,
			"count":32,
			"type":"VEC3"
		},
		{
			"bufferView":6,
			"componentType":5126,
			"count":32,
			"type":"VEC2"
		},
		{
			"bufferView":7,
			"componentType":5123,
			"count":60,
			"type":"SCALAR"
		},
		{
			"bufferView":8,
			"componentType":5126,
			"count":198,
			"max":[
				0.5924477577209473,
				0.4648914337158203,
				0.245657816529274
			],
			"min":[
				-0.5924477577209473,
				-0.4648914337158203,
				-0.245657816529274
			],
			"type":"VEC3"
		},
		{
			"bufferView":9,
			"componentType":5126,
			"count":198,
			"type":"VEC3"
		},
		{
			"bufferView":10,
			"componentType":5126,
			"count":198,
			"type":"VEC2"
		},
		{
			"bufferView":11,
			"componentType":5123,
			"count":636,
			"type":"SCALAR"
		},
		{
			"bufferView":12,
			"componentType":5126,
			"count":130,
			"max":[
				0.43570613861083984,
				0.4357060194015503,
				0.4357060194015503
			],
			"min":[
				-0.43570613861083984,
				-0.4357060194015503,
				-0.4357060194015503
			],
			"type":"VEC3"
		},
		{
			"bufferView":13,
			"componentType":5126,
			"count":130,
			"type":"VEC3"
		},
		{
			"bufferView":14,
			"componentType":5126,
			"count":130,
			"type":"VEC2"
		},
		{
			"bufferView":15,
			"componentType":5123,
			"count":372,
			"type":"SCALAR"
		},
		{
			"bufferView":16,
			"componentType":5126,
			"count":130,
			"max":[
				0.45592212677001953,
				0.45592212677001953,
				0.36567068099975586
			],
			"min":[
				-0.45592212677001953,
				-0.45592212677001953,
				-0.36567068099975586
			],
			"type":"VEC3"
		},
		{
			"bufferView":17,
			"componentType":5126,
			"count":130,
			"type":"VEC3"
		},
		{
			"bufferView":18,
			"componentType":5126,
			"count":130,
			"type":"VEC2"
		},
		{
			"bufferView":19,
			"componentType":5126,
			"count":130,
			"max":[
				0.1266169548034668,
				0.1266169548034668,
				0.12661691009998322
			],
			"min":[
				-0.1266169548034668,
				-0.1266169548034668,
				-0.12661691009998322
			],
			"type":"VEC3"
		},
		{
			"bufferView":20,
			"componentType":5126,
			"count":130,
			"type":"VEC3"
		},
		{
			"bufferView":21,
			"componentType":5126,
			"count":130,
			"type":"VEC2"
		},
		{
			"bufferView":22,
			"componentType":5126,
			"count":130,
			"max":[
				0.13782000541687012,
				0.13782000541687012,
				0.1378200650215149
			],
			"min":[
				-0.13782000541687012,
				-0.13782000541687012,
				-0.1378200650215149
			],
			"type":"VEC3"
		},
		{
			"bufferView":23,
			"componentType":5126,
			"count":130,
			"type":"VEC3"
		},
		{
			"bufferView":24,
			"componentType":5126,
			"count":130,
			"type":"VEC2"
		},
		{
			"bufferView":25,
			"componentType":5126,
			"count":130,
			"max":[
				0.1266169548034668,
				0.1266169548034668,
				0.1266169399023056
			],
			"min":[
				-0.1266169548034668,
				-0.1266169548034668,
				-0.1266169399023056
			],
			"type":"VEC3"
		},
		{
			"bufferView":26,
			"componentType":5126,
			"count":130,
			"type":"VEC3"
		},
		{
			"bufferView":27,
			"componentType":5126,
			"count":130,
			"type":"VEC2"
		},
		{
			"bufferView":28,
			"componentType":5126,
			"count":130,
			"max":[
				0.1266169548034668,
				0.12661689519882202,
				0.12661691009998322
			],
			"min":[
				-0.1266169548034668,
				-0.12661689519882202,
				-0.12661691009998322
			],
			"type":"VEC3"
		},
		{
			"bufferView":29,
			"componentType":5126,
			"count":130,
			"type":"VEC3"
		},
		{
			"bufferView":30,
			"componentType":5126,
			"count":130,
			"type":"VEC2"
		},
		{
			"bufferView":31,
			"componentType":5126,
			"count":130,
			"max":[
				0.1266169548034668,
				0.1266169548034668,
				0.1266169399023056
			],
			"min":[
				-0.1266169548034668,
				-0.1266169548034668,
				-0.1266169399023056
			],
			"type":"VEC3"
		},
		{
			"bufferView":32,
			"componentType":5126,
			"count":130,
			"type":"VEC3"
		},
		{
			"bufferView":33,
			"componentType":5126,
			"count":130,
			"type":"VEC2"
		},
		{
			"bufferView":34,
			"componentType":5126,
			"count":130,
			"max":[
				0.1266169548034668,
				0.1266169548034668,
				0.1266169399023056
			],
			"min":[
				-0.1266169548034668,
				-0.1266169548034668,
				-0.1266169399023056
			],
			"type":"VEC3"
		},
		{
			"bufferView":35,
			"componentType":5126,
			"count":130,
			"type":"VEC3"
		},
		{
			"bufferView":36,
			"componentType":5126,
			"count":130,
			"type":"VEC2"
		},
		{
			"bufferView":37,
			"componentType":5126,
			"count":63,
			"max":[
				0.15012025833129883,
				0.15784549713134766,
				0.15784546732902527
			],
			"min":[
				-0.15012025833129883,
				-0.15784549713134766,
				-0.15784546732902527
			],
			"type":"VEC3"
		},
		{
			"bufferView":38,
			"componentType":5126,
			"count":63,
			"type":"VEC3"
		},
		{
			"bufferView":39,
			"componentType":5126,
			"count":63,
			"type":"VEC2"
		},
		{
			"bufferView":40,
			"componentType":5123,
			"count":240,
			"type":"SCALAR"
		},
		{
			"bufferView":41,
			"componentType":5126,
			"count":130,
			"max":[
				0.1266169548034668,
				0.1266169548034668,
				0.1266169399023056
			],
			"min":[
				-0.1266169548034668,
				-0.1266169548034668,
				-0.1266169399023056
			],
			"type":"VEC3"
		},
		{
			"bufferView":42,
			"componentType":5126,
			"count":130,
			"type":"VEC3"
		},
		{
			"bufferView":43,
			"componentType":5126,
			"count":130,
			"type":"VEC2"
		},
		{
			"bufferView":44,
			"componentType":5126,
			"count":130,
			"max":[
				0.17085188627243042,
				0.1708517074584961,
				0.05551666021347046
			],
			"min":[
				-0.17085188627243042,
				-0.1708517074584961,
				-0.05551666021347046
			],
			"type":"VEC3"
		},
		{
			"bufferView":45,
			"componentType":5126,
			"count":130,
			"type":"VEC3"
		},
		{
			"bufferView":46,
			"componentType":5126,
			"count":130,
			"type":"VEC2"
		},
		{
			"bufferView":47,
			"componentType":5126,
			"count":426,
			"max":[
				1.0318704843521118,
				1.0318703651428223,
				0.26588940620422363
			],
			"min":[
				-1.0318704843521118,
				-1.0318703651428223,
				-0.26588940620422363
			],
			"type":"VEC3"
		},
		{
			"bufferView":48,
			"componentType":5126,
			"count":426,
			"type":"VEC3"
		},
		{
			"bufferView":49,
			"componentType":5126,
			"count":426,
			"type":"VEC2"
		},
		{
			"bufferView":50,
			"componentType":5123,
			"count":1332,
			"type":"SCALAR"
		},
		{
			"bufferView":51,
			"componentType":5126,
			"count":130,
			"max":[
				0.720214307308197,
				0.7202143669128418,
				0.22878128290176392
			],
			"min":[
				-0.720214307308197,
				-0.7202143669128418,
				-0.22878128290176392
			],
			"type":"VEC3"
		},
		{
			"bufferView":52,
			"componentType":5126,
			"count":130,
			"type":"VEC3"
		},
		{
			"bufferView":53,
			"componentType":5126,
			"count":130,
			"type":"VEC2"
		},
		{
			"bufferView":54,
			"componentType":5126,
			"count":130,
			"max":[
				0.13790380954742432,
				0.13790380954742432,
				0.06763207912445068
			],
			"min":[
				-0.13790380954742432,
				-0.13790380954742432,
				-0.06763207912445068
			],
			"type":"VEC3"
		},
		{
			"bufferView":55,
			"componentType":5126,
			"count":130,
			"type":"VEC3"
		},
		{
			"bufferView":56,
			"componentType":5126,
			"count":130,
			"type":"VEC2"
		},
		{
			"bufferView":57,
			"componentType":5126,
			"count":130,
			"max":[
				0.13790380954742432,
				0.1379038393497467,
				0.06763207912445068
			],
			"min":[
				-0.13790380954742432,
				-0.1379038393497467,
				-0.06763207912445068
			],
			"type":"VEC3"
		},
		{
			"bufferView":58,
			"componentType":5126,
			"count":130,
			"type":"VEC3"
		},
		{
			"bufferView":59,
			"componentType":5126,
			"count":130,
			"type":"VEC2"
		},
		{
			"bufferView":60,
			"componentType":5126,
			"count":130,
			"max":[
				0.13790380954742432,
				0.13790380954742432,
				0.06763207912445068
			],
			"min":[
				-0.13790380954742432,
				-0.13790380954742432,
				-0.06763207912445068
			],
			"type":"VEC3"
		},
		{
			"bufferView":61,
			"componentType":5126,
			"count":130,
			"type":"VEC3"
		},
		{
			"bufferView":62,
			"componentType":5126,
			"count":130,
			"type":"VEC2"
		},
		{
			"bufferView":63,
			"componentType":5126,
			"count":130,
			"max":[
				0.21848106384277344,
				0.21848106384277344,
				0.21848109364509583
			],
			"min":[
				-0.21848106384277344,
				-0.21848106384277344,
				-0.21848109364509583
			],
			"type":"VEC3"
		},
		{
			"bufferView":64,
			"componentType":5126,
			"count":130,
			"type":"VEC3"
		},
		{
			"bufferView":65,
			"componentType":5126,
			"count":130,
			"type":"VEC2"
		},
		{
			"bufferView":66,
			"componentType":5126,
			"count":130,
			"max":[
				0.21848106384277344,
				0.21848106384277344,
				0.21848106384277344
			],
			"min":[
				-0.21848106384277344,
				-0.21848106384277344,
				-0.21848106384277344
			],
			"type":"VEC3"
		},
		{
			"bufferView":67,
			"componentType":5126,
			"count":130,
			"type":"VEC3"
		},
		{
			"bufferView":68,
			"componentType":5126,
			"count":130,
			"type":"VEC2"
		}
	],
	"bufferViews":[
		{
			"buffer":0,
			"byteLength":16416,
			"byteOffset":0,
			"target":34962
		},
		{
			"buffer":0,
			"byteLength":16416,
			"byteOffset":16416,
			"target":34962
		},
		{
			"buffer":0,
			"byteLength":10944,
			"byteOffset":32832,
			"target":34962
		},
		{
			"buffer":0,
			"byteLength":10152,
			"byteOffset":43776,
			"target":34963
		},
		{
			"buffer":0,
			"byteLength":384,
			"byteOffset":53928,
			"target":34962
		},
		{
			"buffer":0,
			"byteLength":384,
			"byteOffset":54312,
			"target":34962
		},
		{
			"buffer":0,
			"byteLength":256,
			"byteOffset":54696,
			"target":34962
		},
		{
			"buffer":0,
			"byteLength":120,
			"byteOffset":54952,
			"target":34963
		},
		{
			"buffer":0,
			"byteLength":2376,
			"byteOffset":55072,
			"target":34962
		},
		{
			"buffer":0,
			"byteLength":2376,
			"byteOffset":57448,
			"target":34962
		},
		{
			"buffer":0,
			"byteLength":1584,
			"byteOffset":59824,
			"target":34962
		},
		{
			"buffer":0,
			"byteLength":1272,
			"byteOffset":61408,
			"target":34963
		},
		{
			"buffer":0,
			"byteLength":1560,
			"byteOffset":62680,
			"target":34962
		},
		{
			"buffer":0,
			"byteLength":1560,
			"byteOffset":64240,
			"target":34962
		},
		{
			"buffer":0,
			"byteLength":1040,
			"byteOffset":65800,
			"target":34962
		},
		{
			"buffer":0,
			"byteLength":744,
			"byteOffset":66840,
			"target":34963
		},
		{
			"buffer":0,
			"byteLength":1560,
			"byteOffset":67584,
			"target":34962
		},
		{
			"buffer":0,
			"byteLength":1560,
			"byteOffset":69144,
			"target":34962
		},
		{
			"buffer":0,
			"byteLength":1040,
			"byteOffset":70704,
			"target":34962
		},
		{
			"buffer":0,
			"byteLength":1560,
			"byteOffset":71744,
			"target":34962
		},
		{
			"buffer":0,
			"byteLength":1560,
			"byteOffset":73304,
			"target":34962
		},
		{
			"buffer":0,
			"byteLength":1040,
			"byteOffset":74864,
			"target":34962
		},
		{
			"buffer":0,
			"byteLength":1560,
			"byteOffset":75904,
			"target":34962
		},
		{
			"buffer":0,
			"byteLength":1560,
			"byteOffset":77464,
			"target":34962
		},
		{
			"buffer":0,
			"byteLength":1040,
			"byteOffset":79024,
			"target":34962
		},
		{
			"buffer":0,
			"byteLength":1560,
			"byteOffset":80064,
			"target":34962
		},
		{
			"buffer":0,
			"byteLength":1560,
			"byteOffset":81624,
			"target":34962
		},
		{
			"buffer":0,
			"byteLength":1040,
			"byteOffset":83184,
			"target":34962
		},
		{
			"buffer":0,
			"byteLength":1560,
			"byteOffset":84224,
			"target":34962
		},
		{
			"buffer":0,
			"byteLength":1560,
			"byteOffset":85784,
			"target":34962
		},
		{
			"buffer":0,
			"byteLength":1040,
			"byteOffset":87344,
			"target":34962
		},
		{
			"buffer":0,
			"byteLength":1560,
			"byteOffset":88384,
			"target":34962
		},
		{
			"buffer":0,
			"byteLength":1560,
			"byteOffset":89944,
			"target":34962
		},
		{
			"buffer":0,
			"byteLength":1040,
			"byteOffset":91504,
			"target":34962
		},
		{
			"buffer":0,
			"byteLength":1560,
			"byteOffset":92544,
			"target":34962
		},
		{
			"buffer":0,
			"byteLength":1560,
			"byteOffset":94104,
			"target":34962
		},
		{
			"buffer":0,
			"byteLength":1040,
			"byteOffset":95664,
			"target":34962
		},
		{
			"buffer":0,
			"byteLength":756,
			"byteOffset":96704,
			"target":34962
		},
		{
			"buffer":0,
			"byteLength":756,
			"byteOffset":97460,
			"target":34962
		},
		{
			"buffer":0,
			"byteLength":504,
			"byteOffset":98216,
			"target":34962
		},
		{
			"buffer":0,
			"byteLength":480,
			"byteOffset":98720,
			"target":34963
		},
		{
			"buffer":0,
			"byteLength":1560,
			"byteOffset":99200,
			"target":34962
		},
		{
			"buffer":0,
			"byteLength":1560,
			"byteOffset":100760,
			"target":34962
		},
		{
			"buffer":0,
			"byteLength":1040,
			"byteOffset":102320,
			"target":34962
		},
		{
			"buffer":0,
			"byteLength":1560,
			"byteOffset":103360,
			"target":34962
		},
		{
			"buffer":0,
			"byteLength":1560,
			"byteOffset":104920,
			"target":34962
		},
		{
			"buffer":0,
			"byteLength":1040,
			"byteOffset":106480,
			"target":34962
		},
		{
			"buffer":0,
			"byteLength":5112,
			"byteOffset":107520,
			"target":34962
		},
		{
			"buffer":0,
			"byteLength":5112,
			"byteOffset":112632,
			"target":34962
		},
		{
			"buffer":0,
			"byteLength":3408,
			"byteOffset":117744,
			"target":34962
		},
		{
			"buffer":0,
			"byteLength":2664,
			"byteOffset":121152,
			"target":34963
		},
		{
			"buffer":0,
			"byteLength":1560,
			"byteOffset":123816,
			"target":34962
		},
		{
			"buffer":0,
			"byteLength":1560,
			"byteOffset":125376,
			"target":34962
		},
		{
			"buffer":0,
			"byteLength":1040,
			"byteOffset":126936,
			"target":34962
		},
		{
			"buffer":0,
			"byteLength":1560,
			"byteOffset":127976,
			"target":34962
		},
		{
			"buffer":0,
			"byteLength":1560,
			"byteOffset":129536,
			"target":34962
		},
		{
			"buffer":0,
			"byteLength":1040,
			"byteOffset":131096,
			"target":34962
		},
		{
			"buffer":0,
			"byteLength":1560,
			"byteOffset":132136,
			"target":34962
		},
		{
			"buffer":0,
			"byteLength":1560,
			"byteOffset":133696,
			"target":34962
		},
		{
			"buffer":0,
			"byteLength":1040,
			"byteOffset":135256,
			"target":34962
		},
		{
			"buffer":0,
			"byteLength":1560,
			"byteOffset":136296,
			"target":34962
		},
		{
			"buffer":0,
			"byteLength":1560,
			"byteOffset":137856,
			"target":34962
		},
		{
			"buffer":0,
			"byteLength":1040,
			"byteOffset":139416,
			"target":34962
		},
		{
			"buffer":0,
			"byteLength":1560,
			"byteOffset":140456,
			"target":34962
		},
		{
			"buffer":0,
			"byteLength":1560,
			"byteOffset":142016,
			"target":34962
		},
		{
			"buffer":0,
			"byteLength":1040,
			"byteOffset":143576,
			"target":34962
		},
		{
			"buffer":0,
			"byteLength":1560,
			"byteOffset":144616,
			"target":34962
		},
		{
			"buffer":0,
			"byteLength":1560,
			"byteOffset":146176,
			"target":34962
		},
		{
			"buffer":0,
			"byteLength":1040,
			"byteOffset":147736,
			"target":34962
		}
	],
	"buffers":[
		{
			"byteLength":148776,
			"uri":"042_sporenkijker_10.bin"
		}
	]
}
