{
	"asset":{
		"generator":"Khronos glTF Blender I/O v5.0.21",
		"version":"2.0"
	},
	"scene":0,
	"scenes":[
		{
			"name":"Scene",
			"nodes":[
				0,
				1,
				2
			]
		}
	],
	"nodes":[
		{
			"mesh":0,
			"name":"Plane.002",
			"translation":[
				-1.7641572952270508,
				3.5786185264587402,
				0.493049293756485
			]
		},
		{
			"name":"BE.NMBS.008891003",
			"translation":[
				0.42440521717071533,
				4.336561679840088,
				0.36813318729400635
			]
		},
		{
			"name":"BE.NMBS.008895001",
			"translation":[
				-2.993919849395752,
				2.8204550743103027,
				0.49304941296577454
			]
		}
	],
	"meshes":[
		{
			"name":"Plane.004",
			"primitives":[
				{
					"attributes":{
						"POSITION":0,
						"NORMAL":1,
						"TEXCOORD_0":2
					},
					"indices":3
				}
			]
		}
	],
	"accessors":[
		{
			"bufferView":0,
			"componentType":5126,
			"count":2331,
			"max":[
				7.129525184631348,
				3.3469715118408203,
				0.08080783486366272
			],
			"min":[
				-7.129525184631348,
				-3.3469715118408203,
				-0.08080783486366272
			],
			"type":"VEC3"
		},
		{
			"bufferView":1,
			"componentType":5126,
			"count":2331,
			"type":"VEC3"
		},
		{
			"bufferView":2,
			"componentType":5126,
			"count":2331,
			"type":"VEC2"
		},
		{
			"bufferView":3,
			"componentType":5123,
			"count":3588,
			"type":"SCALAR"
		}
	],
	"bufferViews":[
		{
			"buffer":0,
			"byteLength":27972,
			"byteOffset":0,
			"target":34962
		},
		{
			"buffer":0,
			"byteLength":27972,
			"byteOffset":27972,
			"target":34962
		},
		{
			"buffer":0,
			"byteLength":18648,
			"byteOffset":55944,
			"target":34962
		},
		{
			"buffer":0,
			"byteLength":7176,
			"byteOffset":74592,
			"target":34963
		}
	],
	"buffers":[
		{
			"byteLength":81768,
			"uri":"042_sporenkijker_7.bin"
		}
	]
}
